<?xml version="1.0" encoding="UTF-8" standalone="no"?>
<svg
   version="1.1"
   width="170pt"
   height="190pt"
   id="svg83"
   viewBox="0 0 170 190.00001"
   sodipodi:docname="logo.svg"
   inkscape:version="1.2.2 (b0a84865, 2022-12-01)"
   xmlns:inkscape="http://www.inkscape.org/namespaces/inkscape"
   xmlns:sodipodi="http://sodipodi.sourceforge.net/DTD/sodipodi-0.dtd"
   xmlns="http://www.w3.org/2000/svg"
   xmlns:svg="http://www.w3.org/2000/svg">
  <sodipodi:namedview
     id="namedview85"
     pagecolor="#ffffff"
     bordercolor="#000000"
     borderopacity="0.25"
     inkscape:showpageshadow="2"
     inkscape:pageopacity="0.0"
     inkscape:pagecheckerboard="true"
     inkscape:deskcolor="#d1d1d1"
     inkscape:document-units="pt"
     showgrid="false"
     inkscape:zoom="1.0025602"
     inkscape:cx="102.23825"
     inkscape:cy="280.78114"
     inkscape:window-width="1920"
     inkscape:window-height="1027"
     inkscape:window-x="0"
     inkscape:window-y="25"
     inkscape:window-maximized="1"
     inkscape:current-layer="svg83" />
  <defs
     id="defs7">
    <radialGradient
       id="grad1"
       cx="38.890202"
       cy="2824.9346"
       r="21.212843"
       gradientTransform="matrix(7.0711833,0,0,0.14141905,-189.99975,-387.99975)"
       fx="38.890202"
       fy="2824.9346"
       gradientUnits="userSpaceOnUse">
      <stop
         offset="0%"
         stop-color="#ffffff"
         stop-opacity="1.0000"
         id="stop2" />
      <stop
         offset="100%"
         stop-color="#b1b3b4"
         stop-opacity="1.0000"
         id="stop4" />
    </radialGradient>
  </defs>
  <path
     d="m 10.00005,9.99985 v 2.9999 h 149.9999 v -2.9999 z"
     style="fill:url(#grad1)"
     id="path9" />
  <defs
     id="defs16">
    <radialGradient
       id="grad2"
       cx="284.77551"
       cy="445.71454"
       r="159.68723"
       gradientTransform="matrix(0.93933557,0,0,1.0645823,-189.99975,-387.99975)"
       fx="284.77551"
       fy="445.71454"
       gradientUnits="userSpaceOnUse">
      <stop
         offset="0%"
         stop-color="#e4f3f7"
         stop-opacity="1.0000"
         id="stop11" />
      <stop
         offset="100%"
         stop-color="#868789"
         stop-opacity="1.0000"
         id="stop13" />
    </radialGradient>
  </defs>
  <path
     d="m 159.99995,9.99995 v 140.0003 c 0,16.4994 -10.9693,29.9999 -24.3752,29.9999 H 34.37525 c -13.4059,0 -24.3752,-13.5 -24.3752,-29.9999 V 9.99995 h 9.9998 v 100.0003 h 3e-4 v 21.0002 c 0,13.1996 9.506,24.0001 21.124905,24.0001 h 87.750395 c 11.619,0 21.125,-10.8005 21.125,-24.0001 v -35.9997 h -3e-4 V 9.99995 Z"
     style="fill:url(#grad2)"
     id="path18" />
  <defs
     id="defs25">
    <radialGradient
       id="grad3"
       cx="202.27991"
       cy="770.45557"
       r="74.187271"
       gradientTransform="matrix(1.4719721,0,0,0.67936069,-189.99975,-387.99975)"
       fx="202.27991"
       fy="770.45557"
       gradientUnits="userSpaceOnUse">
      <stop
         offset="0%"
         stop-color="#ffb31c"
         stop-opacity="1.0000"
         id="stop20" />
      <stop
         offset="100%"
         stop-color="#bf6e1c"
         stop-opacity="1.0000"
         id="stop22" />
    </radialGradient>
  </defs>
  <path
     d="m 150.00125,94.91755 v 35.9997 c 0,13.1999 -9.5064,24.0002 -21.1255,24.0002 H 41.124755 c -11.619005,0 -21.125405,-10.8003 -21.125405,-24.0002 v -35.9997 z"
     style="fill:url(#grad3)"
     id="path27" />
  <path
     d="m 121.74865,110.60135 c -0.6271,-0.3308 -1.2659,-0.6125 -1.9087,-0.8628 l 0.4594,-0.0373 c 0,0 -4.0925,-1.8041 -4.4504,-14.8996 -0.354,-13.0975 3.9012,-15.3315 3.9012,-15.3315 l -0.6112,0.0265 c 3.215,-1.6421 5.9805,-4.2363 7.8054,-7.6599 4.755,-8.9044 1.3527,-19.965201 -7.5935,-24.700101 -8.95,-4.728999 -20.057295,-1.349599 -24.809295,7.5636 -1.9541,3.656201 -2.5092,7.672601 -1.892,11.467201 l -0.209,-0.32 c 0,0 1.0776,4.7526 -10.1134,11.6685 -11.1891,6.9198 -16.2369,3.4746 -16.2369,3.4746 l 0.3214,0.4711 c -0.3205,-0.1973 -0.6271,-0.3985 -0.9613,-0.5722 -8.95,-4.7349 -20.0602,-1.3516 -24.8143,7.5587 -4.752005,8.9094 -1.3526,19.9653 7.5945,24.7022 6.6706,3.5246 14.5362,2.5421 20.078,-1.8787 l -0.1203,0.2317 c 0,0 4.0738,-3.3362 15.814,2.9387 9.2675,4.9508 10.6438,9.8035 10.8203,11.6272 -0.2425,6.7656 3.2998,13.4017 9.708205,16.791 8.94709,4.7358 20.05729,1.3496 24.80939,-7.5588 4.7559,-8.9074 1.3585,-19.9692 -7.5915,-24.7001 z m -20.68829,2.4008 c -1.482805,0.5221 -5.719305,1.1002 -14.637805,-3.6611 -9.6589,-5.1629 -11.0924,-9.4757 -11.3024,-10.7703 0.137,-1.5705 0.0493,-3.138 -0.2198,-4.6672 l 0.0591,0.0883 c 0,0 -0.7867,-4.195 10.2653,-11.0275 9.8916,-6.1129 14.3883,-4.8968 15.225305,-4.5778 0.5384,0.3641 1.0964,0.7037 1.682,1.0139 1.1131,0.5889 2.2607,1.0502 3.423,1.3918 1.3606,1.2897 3.8648,4.9518 4.1251,14.5796 0.2662,9.7004 -2.5969,13.4411 -4.1576,14.7642 -1.607,0.7244 -3.1115,1.6912 -4.4622,2.8661 z"
     style="fill:#1b1918;fill-rule:evenodd;stroke:#d9dadb;stroke-width:5.6693;stroke-linecap:butt;stroke-linejoin:round;stroke-dasharray:none"
     id="path29" />
  <g
     id="Layer1000"
     transform="translate(-189.99975,-387.99975)">
    <path
       d="m 289.8504,440.95 c -5.3387,5.8136 -5.4511,14.3656 -0.3076,19.2046 -2.5427,-2.4372 -2.4875,-7.5097 0.0818,-12.3644 0.3303,-0.4348 1.2876,-1.4625 2.6866,-0.9952 0.141,0.048 0.2336,0.0608 0.2879,0.052 0.3165,0.0677 0.6408,0.1079 0.976,0.0932 2.1247,-0.0962 3.7682,-1.8855 3.6725,-4.0017 -0.0433,-0.9491 -0.4387,-1.7893 -1.05,-2.4342 4.9315,-3.2165 10.5907,-3.5845 12.9095,-1.4762 l 0.0887,0.006 c -5.2972,-4.8153 -13.9565,-3.9545 -19.3454,1.916 z"
       style="fill:#ffffff;fill-rule:evenodd"
       id="path31" />
  </g>
  <g
     id="Layer1001"
     transform="translate(-189.99975,-387.99975)">
    <path
       d="m 236.013,494.6838 c -0.0454,-0.0462 -0.0917,-0.1001 -0.1391,-0.1453 0.0296,0.0304 0.0582,0.0677 0.0937,0.1001 z"
       style="fill:#ffffff;fill-rule:evenodd"
       id="path34" />
    <path
       d="m 236.1835,475.3329 c -5.3396,5.8146 -5.451,14.3647 -0.3086,19.2046 -2.5416,-2.4381 -2.4874,-7.5106 0.0819,-12.3653 0.3312,-0.4358 1.2895,-1.4625 2.6885,-0.9953 0.1391,0.0481 0.2327,0.0599 0.2879,0.053 0.3165,0.0678 0.6419,0.108 0.9761,0.0933 2.1256,-0.0972 3.7681,-1.8865 3.6725,-4.0007 -0.0444,-0.9492 -0.4388,-1.7903 -1.0481,-2.4342 4.9286,-3.2155 10.5887,-3.5865 12.9075,-1.4772 l 0.0878,0.008 c -5.2973,-4.8183 -13.9585,-3.9584 -19.3455,1.914 z"
       style="fill:#ffffff;fill-rule:evenodd"
       id="path36" />
  </g>
  <g
     id="Layer1002"
     transform="translate(-189.99975,-387.99975)">
    <path
       d="m 292.8249,523.7949 c -0.0464,-0.0471 -0.0927,-0.1001 -0.1391,-0.1453 0.0286,0.0305 0.0582,0.0678 0.0927,0.0992 z"
       style="fill:#ffffff;fill-rule:evenodd"
       id="path39" />
    <path
       d="m 292.9944,504.4412 c -5.3396,5.8165 -5.451,14.3686 -0.3085,19.2075 -2.5437,-2.4371 -2.4875,-7.5116 0.0808,-12.3643 0.3313,-0.4368 1.2886,-1.4625 2.6886,-0.9953 0.141,0.0461 0.2317,0.0599 0.2879,0.052 0.3155,0.0677 0.6418,0.108 0.976,0.0942 2.1237,-0.0981 3.7662,-1.8884 3.6706,-4.0046 -0.0434,-0.9482 -0.4388,-1.7884 -1.0481,-2.4332 4.9296,-3.2146 10.5877,-3.5846 12.9085,-1.4762 l 0.0868,0.007 c -5.2944,-4.8163 -13.9566,-3.9555 -19.3426,1.9131 z"
       style="fill:#ffffff;fill-rule:evenodd"
       id="path41" />
  </g>
  <path
     d="m 150.39665,95.00015 v 35.9992 c 0,13.1998 -9.5063,23.9999 -21.1254,23.9999 H 41.520655 c -11.619005,0 -21.125305,-10.8001 -21.125305,-23.9999 v -35.9992 z"
     style="fill:#fcb11c;fill-opacity:0.4;fill-rule:evenodd"
     id="path44" />
  <defs
     id="defs51">
    <linearGradient
       id="grad4"
       gradientTransform="matrix(6.5831426,0,0,0.15190313,-189.99975,-387.99975)"
       x1="31.899551"
       y1="3184.8323"
       x2="51.647003"
       y2="3184.8323"
       gradientUnits="userSpaceOnUse">
      <stop
         offset="0%"
         stop-color="#a06414"
         stop-opacity="1.0000"
         id="stop46" />
      <stop
         offset="100%"
         stop-color="#e8a51e"
         stop-opacity="1.0000"
         id="stop48" />
    </linearGradient>
  </defs>
  <path
     d="m 19.99955,95.78625 v 2.9997 h 130.0003 v -2.9997 z"
     style="fill:url(#grad4)"
     id="path53" />
  <path
     d="m 19.99935,94.99995 v 1 h 130.0008 v -1 z"
     style="fill:#ffae52;fill-rule:evenodd"
     id="path55" />
  <path
     d="m 84.999955,163.00025 a 50,6.0001 0 0 1 50.000095,6.0001 50,6.0001 0 1 1 -50.000095,-6.0001 z"
     style="fill:#ffffff;fill-rule:evenodd"
     id="path72" />
  <defs
     id="defs79">
    <radialGradient
       id="grad5"
       cx="70.788597"
       cy="2292.1216"
       r="19.595547"
       gradientTransform="matrix(4.0825756,0,0,0.24494341,-189.99975,-387.99975)"
       fx="70.788597"
       fy="2292.1216"
       gradientUnits="userSpaceOnUse">
      <stop
         offset="0%"
         stop-color="#f0a71a"
         stop-opacity="1.0000"
         id="stop74" />
      <stop
         offset="100%"
         stop-color="#d97e23"
         stop-opacity="1.0000"
         id="stop76" />
    </radialGradient>
  </defs>
  <path
     d="m 84.999955,170.20045 c 16.354605,0 30.877195,0.9426 40.000195,2.3999 -9.123,1.4573 -23.64559,2.3999 -40.000195,2.3999 -16.3545,0 -30.8771,-0.9426 -40.0001,-2.3999 9.123,-1.4573 23.6456,-2.3999 40.0001,-2.3999 z"
     style="fill:url(#grad5)"
     id="path81" />
</svg>
